<svg width="12" height="12" viewBox="0 0 12 12" fill="none" xmlns="http://www.w3.org/2000/svg">
<path d="M5.99999 8.66046C7.46932 8.66046 8.66049 7.4693 8.66049 5.99996C8.66049 4.5306 7.46932 3.33946 5.99999 3.33946C4.53062 3.33946 3.33949 4.5306 3.33949 5.99996C3.33949 7.4693 4.53062 8.66046 5.99999 8.66046Z" fill="#D18DD1"/>
<path fill-rule="evenodd" clip-rule="evenodd" d="M11.8531 5.99996C11.8531 9.23253 9.23256 11.8531 5.99999 11.8531C2.76739 11.8531 0.146881 9.23253 0.146881 5.99996C0.146881 2.76736 2.76739 0.146851 5.99999 0.146851C9.23256 0.146851 11.8531 2.76736 11.8531 5.99996ZM10.2568 5.99996C10.2568 8.35093 8.35096 10.2568 5.99999 10.2568C3.64902 10.2568 1.74319 8.35093 1.74319 5.99996C1.74319 3.64899 3.64902 1.74316 5.99999 1.74316C8.35096 1.74316 10.2568 3.64899 10.2568 5.99996Z" fill="#D18DD1"/>
</svg>
